<?xml version="1.0" encoding="UTF-8"?>
<svg id="_レイヤー_1" data-name="レイヤー 1" xmlns="http://www.w3.org/2000/svg" viewBox="0 0 1080 1080">
  <defs>
    <style>
      .cls-1 {
        fill: #144147;
      }
    </style>
  </defs>
  <path class="cls-1" d="M376.07,610.04c12.62-113.39,66.15-212.01,150.72-277.7,8.94-6.94,19.42-13.89,30.63-21.08-14.98-19.04-32.39-36.55-52.36-52.07-31.4-24.39-110.91-63.2-134.98-108.49-6.7-12.6-24.02-14.58-33.09-3.56-130.79,158.94-135.07,406.09,26.65,536.32,3.52,2.83,7.04,5.59,10.55,8.32-1.68-27.35-1.12-54.72,1.89-81.73Z"/>
  <path class="cls-1" d="M717.28,819.78c-57.25,46.1-114.85,77.22-134.71,110.6-7.04,11.83-23.95,12.81-32.7,2.18-131.3-159.51-134.8-412.15,25.98-537.05,31.4-24.39,110.91-63.2,134.98-108.49,6.7-12.6,24.02-14.58,33.09-3.56,130.79,158.94,135.07,406.09-26.65,536.32Z"/>
</svg>
